700 0 1 0
8 acadrust 8 ACIS 7.0 24 Thu Jan 01 00:00:00 2023
10 1e-006 1e-010
body $-1 -1 $-1 $162 $-1 $-1 #
point $-1 -1 $-1 0 0 0 #
vertex $-1 -1 $-1 $34 $1 #
point $-1 -1 $-1 10 0 0 #
vertex $-1 -1 $-1 $38 $3 #
point $-1 -1 $-1 10 10 0 #
vertex $-1 -1 $-1 $36 $5 #
point $-1 -1 $-1 0 10 0 #
vertex $-1 -1 $-1 $34 $7 #
point $-1 -1 $-1 0 0 4 #
vertex $-1 -1 $-1 $50 $9 #
point $-1 -1 $-1 10 0 4 #
vertex $-1 -1 $-1 $50 $11 #
point $-1 -1 $-1 10 10 4 #
vertex $-1 -1 $-1 $52 $13 #
point $-1 -1 $-1 0 10 4 #
vertex $-1 -1 $-1 $54 $15 #
point $-1 -1 $-1 3 3 0 #
vertex $-1 -1 $-1 $42 $17 #
point $-1 -1 $-1 7 3 0 #
vertex $-1 -1 $-1 $42 $19 #
point $-1 -1 $-1 7 7 0 #
vertex $-1 -1 $-1 $44 $21 #
point $-1 -1 $-1 3 7 0 #
vertex $-1 -1 $-1 $46 $23 #
point $-1 -1 $-1 3 3 4 #
vertex $-1 -1 $-1 $58 $25 #
point $-1 -1 $-1 7 3 4 #
vertex $-1 -1 $-1 $62 $27 #
point $-1 -1 $-1 7 7 4 #
vertex $-1 -1 $-1 $60 $29 #
point $-1 -1 $-1 3 7 4 #
vertex $-1 -1 $-1 $58 $31 #
straight-curve $-1 -1 $-1 0 0 0 0 1 0 I I #
edge $-1 -1 $-1 $2 0 $8 10 $91 $33 forward @7 unknown #
straight-curve $-1 -1 $-1 0 10 0 1 0 0 I I #
edge $-1 -1 $-1 $8 0 $6 10 $92 $35 forward @7 unknown #
straight-curve $-1 -1 $-1 10 10 0 0 -1 0 I I #
edge $-1 -1 $-1 $6 0 $4 10 $93 $37 forward @7 unknown #
straight-curve $-1 -1 $-1 10 0 0 -1 0 0 I I #
edge $-1 -1 $-1 $4 0 $2 10 $94 $39 forward @7 unknown #
straight-curve $-1 -1 $-1 3 3 0 1 0 0 I I #
edge $-1 -1 $-1 $18 0 $20 4 $95 $41 forward @7 unknown #
straight-curve $-1 -1 $-1 7 3 0 0 1 0 I I #
edge $-1 -1 $-1 $20 0 $22 4 $96 $43 forward @7 unknown #
straight-curve $-1 -1 $-1 7 7 0 -1 0 0 I I #
edge $-1 -1 $-1 $22 0 $24 4 $97 $45 forward @7 unknown #
straight-curve $-1 -1 $-1 3 7 0 0 -1 0 I I #
edge $-1 -1 $-1 $24 0 $18 4 $98 $47 forward @7 unknown #
straight-curve $-1 -1 $-1 0 0 4 1 0 0 I I #
edge $-1 -1 $-1 $10 0 $12 10 $99 $49 forward @7 unknown #
straight-curve $-1 -1 $-1 10 0 4 0 1 0 I I #
edge $-1 -1 $-1 $12 0 $14 10 $100 $51 forward @7 unknown #
straight-curve $-1 -1 $-1 10 10 4 -1 0 0 I I #
edge $-1 -1 $-1 $14 0 $16 10 $101 $53 forward @7 unknown #
straight-curve $-1 -1 $-1 0 10 4 0 -1 0 I I #
edge $-1 -1 $-1 $16 0 $10 10 $102 $55 forward @7 unknown #
straight-curve $-1 -1 $-1 3 3 4 0 1 0 I I #
edge $-1 -1 $-1 $26 0 $32 4 $103 $57 forward @7 unknown #
straight-curve $-1 -1 $-1 3 7 4 1 0 0 I I #
edge $-1 -1 $-1 $32 0 $30 4 $104 $59 forward @7 unknown #
straight-curve $-1 -1 $-1 7 7 4 0 -1 0 I I #
edge $-1 -1 $-1 $30 0 $28 4 $105 $61 forward @7 unknown #
straight-curve $-1 -1 $-1 7 3 4 -1 0 0 I I #
edge $-1 -1 $-1 $28 0 $26 4 $106 $63 forward @7 unknown #
straight-curve $-1 -1 $-1 10 0 0 0 0 1 I I #
edge $-1 -1 $-1 $4 0 $12 4 $108 $65 forward @7 unknown #
straight-curve $-1 -1 $-1 0 0 4 0 0 -1 I I #
edge $-1 -1 $-1 $10 0 $2 4 $110 $67 forward @7 unknown #
straight-curve $-1 -1 $-1 10 10 0 0 0 1 I I #
edge $-1 -1 $-1 $6 0 $14 4 $112 $69 forward @7 unknown #
straight-curve $-1 -1 $-1 0 10 0 0 0 1 I I #
edge $-1 -1 $-1 $8 0 $16 4 $116 $71 forward @7 unknown #
straight-curve $-1 -1 $-1 3 7 0 0 0 1 I I #
edge $-1 -1 $-1 $24 0 $32 4 $124 $73 forward @7 unknown #
straight-curve $-1 -1 $-1 3 3 4 0 0 -1 I I #
edge $-1 -1 $-1 $26 0 $18 4 $126 $75 forward @7 unknown #
straight-curve $-1 -1 $-1 7 7 0 0 0 1 I I #
edge $-1 -1 $-1 $22 0 $30 4 $128 $77 forward @7 unknown #
straight-curve $-1 -1 $-1 7 3 0 0 0 1 I I #
edge $-1 -1 $-1 $20 0 $28 4 $132 $79 forward @7 unknown #
plane-surface $-1 -1 $-1 0 0 0 0 0 -1 0 1 0 forward_v I I I I #
plane-surface $-1 -1 $-1 0 0 4 0 0 1 1 0 0 forward_v I I I I #
plane-surface $-1 -1 $-1 0 0 0 0 -1 0 1 0 0 forward_v I I I I #
plane-surface $-1 -1 $-1 10 0 0 1 0 0 0 1 0 forward_v I I I I #
plane-surface $-1 -1 $-1 10 10 0 0 1 0 -1 0 0 forward_v I I I I #
plane-surface $-1 -1 $-1 0 10 0 -1 0 0 0 -1 0 forward_v I I I I #
plane-surface $-1 -1 $-1 3 3 0 1 0 0 0 1 0 forward_v I I I I #
plane-surface $-1 -1 $-1 3 7 0 0 -1 0 1 0 0 forward_v I I I I #
plane-surface $-1 -1 $-1 7 7 0 -1 0 0 0 -1 0 forward_v I I I I #
plane-surface $-1 -1 $-1 7 3 0 0 1 0 -1 0 0 forward_v I I I I #
coedge $-1 -1 $-1 $92 $94 $119 $34 forward $139 $-1 #
coedge $-1 -1 $-1 $93 $91 $115 $36 forward $139 $-1 #
coedge $-1 -1 $-1 $94 $92 $111 $38 forward $139 $-1 #
coedge $-1 -1 $-1 $91 $93 $107 $40 forward $139 $-1 #
coedge $-1 -1 $-1 $96 $98 $135 $42 forward $140 $-1 #
coedge $-1 -1 $-1 $97 $95 $131 $44 forward $140 $-1 #
coedge $-1 -1 $-1 $98 $96 $127 $46 forward $140 $-1 #
coedge $-1 -1 $-1 $95 $97 $123 $48 forward $140 $-1 #
coedge $-1 -1 $-1 $100 $102 $109 $50 forward $141 $-1 #
coedge $-1 -1 $-1 $101 $99 $113 $52 forward $141 $-1 #
coedge $-1 -1 $-1 $102 $100 $117 $54 forward $141 $-1 #
coedge $-1 -1 $-1 $99 $101 $121 $56 forward $141 $-1 #
coedge $-1 -1 $-1 $104 $106 $125 $58 forward $142 $-1 #
coedge $-1 -1 $-1 $105 $103 $129 $60 forward $142 $-1 #
coedge $-1 -1 $-1 $106 $104 $133 $62 forward $142 $-1 #
coedge $-1 -1 $-1 $103 $105 $137 $64 forward $142 $-1 #
coedge $-1 -1 $-1 $108 $110 $94 $40 reversed $143 $-1 #
coedge $-1 -1 $-1 $109 $107 $114 $66 forward $143 $-1 #
coedge $-1 -1 $-1 $110 $108 $99 $50 reversed $143 $-1 #
coedge $-1 -1 $-1 $107 $109 $120 $68 forward $143 $-1 #
coedge $-1 -1 $-1 $112 $114 $93 $38 reversed $144 $-1 #
coedge $-1 -1 $-1 $113 $111 $118 $70 forward $144 $-1 #
coedge $-1 -1 $-1 $114 $112 $100 $52 reversed $144 $-1 #
coedge $-1 -1 $-1 $111 $113 $108 $66 reversed $144 $-1 #
coedge $-1 -1 $-1 $116 $118 $92 $36 reversed $145 $-1 #
coedge $-1 -1 $-1 $117 $115 $122 $72 forward $145 $-1 #
coedge $-1 -1 $-1 $118 $116 $101 $54 reversed $145 $-1 #
coedge $-1 -1 $-1 $115 $117 $112 $70 reversed $145 $-1 #
coedge $-1 -1 $-1 $120 $122 $91 $34 reversed $146 $-1 #
coedge $-1 -1 $-1 $121 $119 $110 $68 reversed $146 $-1 #
coedge $-1 -1 $-1 $122 $120 $102 $56 reversed $146 $-1 #
coedge $-1 -1 $-1 $119 $121 $116 $72 reversed $146 $-1 #
coedge $-1 -1 $-1 $124 $126 $98 $48 reversed $147 $-1 #
coedge $-1 -1 $-1 $125 $123 $130 $74 forward $147 $-1 #
coedge $-1 -1 $-1 $126 $124 $103 $58 reversed $147 $-1 #
coedge $-1 -1 $-1 $123 $125 $136 $76 forward $147 $-1 #
coedge $-1 -1 $-1 $128 $130 $97 $46 reversed $148 $-1 #
coedge $-1 -1 $-1 $129 $127 $134 $78 forward $148 $-1 #
coedge $-1 -1 $-1 $130 $128 $104 $60 reversed $148 $-1 #
coedge $-1 -1 $-1 $127 $129 $124 $74 reversed $148 $-1 #
coedge $-1 -1 $-1 $132 $134 $96 $44 reversed $149 $-1 #
coedge $-1 -1 $-1 $133 $131 $138 $80 forward $149 $-1 #
coedge $-1 -1 $-1 $134 $132 $105 $62 reversed $149 $-1 #
coedge $-1 -1 $-1 $131 $133 $128 $78 reversed $149 $-1 #
coedge $-1 -1 $-1 $136 $138 $95 $42 reversed $150 $-1 #
coedge $-1 -1 $-1 $137 $135 $126 $76 reversed $150 $-1 #
coedge $-1 -1 $-1 $138 $136 $106 $64 reversed $150 $-1 #
coedge $-1 -1 $-1 $135 $137 $132 $80 reversed $150 $-1 #
loop $-1 -1 $-1 $140 $91 $151 #
loop $-1 -1 $-1 $-1 $95 $151 #
loop $-1 -1 $-1 $142 $99 $152 #
loop $-1 -1 $-1 $-1 $103 $152 #
loop $-1 -1 $-1 $-1 $107 $153 #
loop $-1 -1 $-1 $-1 $111 $154 #
loop $-1 -1 $-1 $-1 $115 $155 #
loop $-1 -1 $-1 $-1 $119 $156 #
loop $-1 -1 $-1 $-1 $123 $157 #
loop $-1 -1 $-1 $-1 $127 $158 #
loop $-1 -1 $-1 $-1 $131 $159 #
loop $-1 -1 $-1 $-1 $135 $160 #
face $-1 -1 $-1 $152 $139 $161 $-1 $81 forward single #
face $-1 -1 $-1 $153 $141 $161 $-1 $82 forward single #
face $-1 -1 $-1 $154 $143 $161 $-1 $83 forward single #
face $-1 -1 $-1 $155 $144 $161 $-1 $84 forward single #
face $-1 -1 $-1 $156 $145 $161 $-1 $85 forward single #
face $-1 -1 $-1 $157 $146 $161 $-1 $86 forward single #
face $-1 -1 $-1 $158 $147 $161 $-1 $87 forward single #
face $-1 -1 $-1 $159 $148 $161 $-1 $88 forward single #
face $-1 -1 $-1 $160 $149 $161 $-1 $89 forward single #
face $-1 -1 $-1 $-1 $150 $161 $-1 $90 forward single #
shell $-1 -1 $-1 $-1 $-1 $151 $-1 $162 #
lump $-1 -1 $-1 $-1 $161 $0 #
End-of-ACIS-data
