700 0 1 0
8 acadrust 8 ACIS 7.0 24 Thu Jan 01 00:00:00 2023
10 1e-006 1e-010
body $-1 -1 $-1 $24 $-1 $-1 #
point $-1 -1 $-1 1 0 0 #
point $-1 -1 $-1 0.5 0 1 #
plane-surface $-1 -1 $-1 0 0 0 0 0 -1 1 0 0 forward_v I I I I #
plane-surface $-1 -1 $-1 0 0 1 0 0 1 1 0 0 forward_v I I I I #
cone-surface $-1 -1 $-1 0 0 0 0 0 1 1 0 0 1 I I -0.4472135954999579 0.8944271909999159 1 forward I I I I #
ellipse-curve $-1 -1 $-1 0 0 0 0 0 -1 1 0 0 1 I I #
ellipse-curve $-1 -1 $-1 0 0 1 0 0 1 0.5 0 0 1 I I #
vertex $-1 -1 $-1 $10 $1 #
vertex $-1 -1 $-1 $11 $2 #
edge $-1 -1 $-1 $8 0 $8 6.283185307179586 $12 $6 forward @7 unknown #
edge $-1 -1 $-1 $9 0 $9 6.283185307179586 $13 $7 forward @7 unknown #
coedge $-1 -1 $-1 $12 $12 $14 $10 forward $16 $-1 #
coedge $-1 -1 $-1 $13 $13 $15 $11 forward $17 $-1 #
coedge $-1 -1 $-1 $14 $14 $12 $10 reversed $18 $-1 #
coedge $-1 -1 $-1 $15 $15 $13 $11 reversed $19 $-1 #
loop $-1 -1 $-1 $-1 $12 $20 #
loop $-1 -1 $-1 $-1 $13 $21 #
loop $-1 -1 $-1 $19 $14 $22 #
loop $-1 -1 $-1 $-1 $15 $22 #
face $-1 -1 $-1 $21 $16 $23 $-1 $3 forward single #
face $-1 -1 $-1 $22 $17 $23 $-1 $4 forward single #
face $-1 -1 $-1 $-1 $18 $23 $-1 $5 forward single #
shell $-1 -1 $-1 $-1 $-1 $20 $-1 $24 #
lump $-1 -1 $-1 $-1 $23 $0 #
End-of-ACIS-data
