700 0 1 0
8 acadrust 8 ACIS 7.0 24 Thu Jan 01 00:00:00 2023
10 1e-006 1e-010
body $-1 -1 $-1 $19 $-1 $-1 #
point $-1 -1 $-1 1 0 0 #
point $-1 -1 $-1 0 0 2 #
plane-surface $-1 -1 $-1 0 0 0 0 0 -1 1 0 0 forward_v I I I I #
cone-surface $-1 -1 $-1 0 0 0 0 0 1 1 0 0 1 I I -0.4472135954999579 0.8944271909999159 1 forward I I I I #
ellipse-curve $-1 -1 $-1 0 0 0 0 0 -1 1 0 0 1 I I #
vertex $-1 -1 $-1 $8 $1 #
vertex $-1 -1 $-1 $9 $2 #
edge $-1 -1 $-1 $6 0 $6 6.283185307179586 $10 $5 forward @7 unknown #
edge $-1 -1 $-1 $7 1 $7 0 $12 $-1 forward @7 unknown #
coedge $-1 -1 $-1 $10 $10 $11 $8 reversed $13 $-1 #
coedge $-1 -1 $-1 $11 $11 $10 $8 forward $14 $-1 #
coedge $-1 -1 $-1 $12 $12 $-1 $9 reversed $15 $-1 #
loop $-1 -1 $-1 $-1 $10 $16 #
loop $-1 -1 $-1 $15 $11 $17 #
loop $-1 -1 $-1 $-1 $12 $17 #
face $-1 -1 $-1 $17 $13 $18 $-1 $3 forward single #
face $-1 -1 $-1 $-1 $14 $18 $-1 $4 forward single #
shell $-1 -1 $-1 $-1 $-1 $16 $-1 $19 #
lump $-1 -1 $-1 $-1 $18 $0 #
End-of-ACIS-data
