700 0 1 0
8 acadrust 8 ACIS 7.0 24 Thu Jan 01 00:00:00 2023
10 1e-006 1e-010
body $-1 -1 $-1 $84 $-1 $-1 #
point $-1 -1 $-1 -1 -1 -1 #
point $-1 -1 $-1 1 -1 -1 #
point $-1 -1 $-1 1 1 -1 #
point $-1 -1 $-1 -1 1 -1 #
point $-1 -1 $-1 -1 -1 1 #
point $-1 -1 $-1 1 -1 1 #
point $-1 -1 $-1 1 1 1 #
point $-1 -1 $-1 -1 1 1 #
plane-surface $-1 -1 $-1 0 0 1 0 0 1 1 0 0 forward_v I I I I #
plane-surface $-1 -1 $-1 0 0 -1 0 0 -1 1 0 0 forward_v I I I I #
plane-surface $-1 -1 $-1 0 -1 0 0 -1 0 1 0 0 forward_v I I I I #
plane-surface $-1 -1 $-1 0 1 0 0 1 0 1 0 0 forward_v I I I I #
plane-surface $-1 -1 $-1 1 0 0 1 0 0 0 1 0 forward_v I I I I #
plane-surface $-1 -1 $-1 -1 0 0 -1 0 0 0 1 0 forward_v I I I I #
straight-curve $-1 -1 $-1 -1 -1 -1 1 0 0 I I #
straight-curve $-1 -1 $-1 1 -1 -1 0 1 0 I I #
straight-curve $-1 -1 $-1 1 1 -1 -1 0 0 I I #
straight-curve $-1 -1 $-1 -1 1 -1 0 -1 0 I I #
straight-curve $-1 -1 $-1 -1 -1 1 1 0 0 I I #
straight-curve $-1 -1 $-1 1 -1 1 0 1 0 I I #
straight-curve $-1 -1 $-1 1 1 1 -1 0 0 I I #
straight-curve $-1 -1 $-1 -1 1 1 0 -1 0 I I #
straight-curve $-1 -1 $-1 -1 -1 -1 0 0 1 I I #
straight-curve $-1 -1 $-1 1 -1 -1 0 0 1 I I #
straight-curve $-1 -1 $-1 1 1 -1 0 0 1 I I #
straight-curve $-1 -1 $-1 -1 1 -1 0 0 1 I I #
vertex $-1 -1 $-1 $35 $1 #
vertex $-1 -1 $-1 $35 $2 #
vertex $-1 -1 $-1 $36 $3 #
vertex $-1 -1 $-1 $37 $4 #
vertex $-1 -1 $-1 $39 $5 #
vertex $-1 -1 $-1 $39 $6 #
vertex $-1 -1 $-1 $40 $7 #
vertex $-1 -1 $-1 $41 $8 #
edge $-1 -1 $-1 $27 0 $28 2 $47 $15 forward @7 unknown #
edge $-1 -1 $-1 $28 0 $29 2 $50 $16 forward @7 unknown #
edge $-1 -1 $-1 $29 0 $30 2 $49 $17 forward @7 unknown #
edge $-1 -1 $-1 $30 0 $27 2 $48 $18 forward @7 unknown #
edge $-1 -1 $-1 $31 0 $32 2 $51 $19 forward @7 unknown #
edge $-1 -1 $-1 $32 0 $33 2 $52 $20 forward @7 unknown #
edge $-1 -1 $-1 $33 0 $34 2 $53 $21 forward @7 unknown #
edge $-1 -1 $-1 $34 0 $31 2 $54 $22 forward @7 unknown #
edge $-1 -1 $-1 $27 0 $31 2 $58 $23 forward @7 unknown #
edge $-1 -1 $-1 $28 0 $32 2 $56 $24 forward @7 unknown #
edge $-1 -1 $-1 $29 0 $33 2 $62 $25 forward @7 unknown #
edge $-1 -1 $-1 $30 0 $34 2 $60 $26 forward @7 unknown #
coedge $-1 -1 $-1 $48 $50 $55 $35 reversed $71 $-1 #
coedge $-1 -1 $-1 $49 $47 $67 $38 reversed $71 $-1 #
coedge $-1 -1 $-1 $50 $48 $59 $37 reversed $71 $-1 #
coedge $-1 -1 $-1 $47 $49 $63 $36 reversed $71 $-1 #
coedge $-1 -1 $-1 $52 $54 $57 $39 forward $72 $-1 #
coedge $-1 -1 $-1 $53 $51 $65 $40 forward $72 $-1 #
coedge $-1 -1 $-1 $54 $52 $61 $41 forward $72 $-1 #
coedge $-1 -1 $-1 $51 $53 $69 $42 forward $72 $-1 #
coedge $-1 -1 $-1 $56 $58 $47 $35 forward $73 $-1 #
coedge $-1 -1 $-1 $57 $55 $66 $44 forward $73 $-1 #
coedge $-1 -1 $-1 $58 $56 $51 $39 reversed $73 $-1 #
coedge $-1 -1 $-1 $55 $57 $68 $43 reversed $73 $-1 #
coedge $-1 -1 $-1 $60 $62 $49 $37 forward $74 $-1 #
coedge $-1 -1 $-1 $61 $59 $70 $46 forward $74 $-1 #
coedge $-1 -1 $-1 $62 $60 $53 $41 reversed $74 $-1 #
coedge $-1 -1 $-1 $59 $61 $64 $45 reversed $74 $-1 #
coedge $-1 -1 $-1 $64 $66 $50 $36 forward $75 $-1 #
coedge $-1 -1 $-1 $65 $63 $62 $45 forward $75 $-1 #
coedge $-1 -1 $-1 $66 $64 $52 $40 reversed $75 $-1 #
coedge $-1 -1 $-1 $63 $65 $56 $44 reversed $75 $-1 #
coedge $-1 -1 $-1 $68 $70 $48 $38 forward $76 $-1 #
coedge $-1 -1 $-1 $69 $67 $58 $43 forward $76 $-1 #
coedge $-1 -1 $-1 $70 $68 $54 $42 reversed $76 $-1 #
coedge $-1 -1 $-1 $67 $69 $60 $46 reversed $76 $-1 #
loop $-1 -1 $-1 $-1 $47 $77 #
loop $-1 -1 $-1 $-1 $51 $78 #
loop $-1 -1 $-1 $-1 $55 $79 #
loop $-1 -1 $-1 $-1 $59 $80 #
loop $-1 -1 $-1 $-1 $63 $81 #
loop $-1 -1 $-1 $-1 $67 $82 #
face $-1 -1 $-1 $78 $71 $83 $-1 $10 forward single #
face $-1 -1 $-1 $79 $72 $83 $-1 $9 forward single #
face $-1 -1 $-1 $80 $73 $83 $-1 $11 forward single #
face $-1 -1 $-1 $81 $74 $83 $-1 $12 forward single #
face $-1 -1 $-1 $82 $75 $83 $-1 $13 forward single #
face $-1 -1 $-1 $-1 $76 $83 $-1 $14 forward single #
shell $-1 -1 $-1 $-1 $-1 $77 $-1 $84 #
lump $-1 -1 $-1 $-1 $83 $0 #
End-of-ACIS-data
